<svg width="164" height="119" viewBox="0 0 164 119" fill="none" xmlns="http://www.w3.org/2000/svg">
<rect x="2.5" y="2.5" width="84" height="114" stroke="black" stroke-width="5"/>
<rect x="63" y="12" width="40" height="94" fill="white"/>
<path d="M49.0996 35.2969V40.1553H30.2275V35.2969H49.0996ZM31.7412 20.4531V56H25.6133V20.4531H31.7412ZM53.8115 20.4531V56H47.708V20.4531H53.8115ZM76.6436 25.1895L66.0234 56H59.6025L72.9814 20.4531H77.083L76.6436 25.1895ZM85.5303 56L74.8857 25.1895L74.4219 20.4531H78.5479L91.9756 56H85.5303ZM85.0176 42.8164V47.6748H65.6816V42.8164H85.0176ZM97.2051 20.4531H109.778C112.48 20.4531 114.783 20.86 116.688 21.6738C118.592 22.4876 120.049 23.6921 121.058 25.2871C122.083 26.8659 122.596 28.819 122.596 31.1465C122.596 32.9206 122.27 34.4831 121.619 35.834C120.968 37.1849 120.049 38.3242 118.86 39.252C117.672 40.1634 116.256 40.8714 114.612 41.376L112.757 42.2793H101.453L101.404 37.4209H109.876C111.341 37.4209 112.562 37.1605 113.538 36.6396C114.515 36.1188 115.247 35.4108 115.735 34.5156C116.24 33.6042 116.492 32.5788 116.492 31.4395C116.492 30.2025 116.248 29.1283 115.76 28.2168C115.288 27.2891 114.555 26.5811 113.562 26.0928C112.57 25.5882 111.308 25.3359 109.778 25.3359H103.333V56H97.2051V20.4531ZM117.493 56L109.144 40.0332L115.564 40.0088L124.036 55.6826V56H117.493ZM27.4932 66.0078H32.415L41.6655 90.6831L50.894 66.0078H55.8159L43.5991 98H39.688L27.4932 66.0078ZM25.252 66.0078H29.9321L30.7451 87.3652V98H25.252V66.0078ZM53.377 66.0078H58.0791V98H52.564V87.3652L53.377 66.0078ZM91.2622 81.125V82.8828C91.2622 85.2998 90.9473 87.4678 90.3174 89.3867C89.6875 91.3057 88.7866 92.939 87.6147 94.2866C86.4575 95.6343 85.0659 96.667 83.4399 97.3848C81.814 98.0879 80.0122 98.4395 78.0347 98.4395C76.0718 98.4395 74.2773 98.0879 72.6514 97.3848C71.04 96.667 69.6411 95.6343 68.4546 94.2866C67.2681 92.939 66.3452 91.3057 65.686 89.3867C65.0415 87.4678 64.7192 85.2998 64.7192 82.8828V81.125C64.7192 78.708 65.0415 76.5474 65.686 74.6431C66.3306 72.7241 67.2388 71.0908 68.4106 69.7432C69.5972 68.3809 70.9961 67.3481 72.6074 66.645C74.2334 65.9272 76.0278 65.5684 77.9907 65.5684C79.9683 65.5684 81.77 65.9272 83.396 66.645C85.022 67.3481 86.4209 68.3809 87.5928 69.7432C88.7646 71.0908 89.6655 72.7241 90.2954 74.6431C90.9399 76.5474 91.2622 78.708 91.2622 81.125ZM85.7471 82.8828V81.0811C85.7471 79.2939 85.5713 77.7192 85.2197 76.3569C84.8828 74.98 84.3774 73.8301 83.7036 72.9072C83.0444 71.9697 82.2314 71.2666 81.2646 70.7979C80.2979 70.3145 79.2065 70.0728 77.9907 70.0728C76.7749 70.0728 75.6909 70.3145 74.7388 70.7979C73.7866 71.2666 72.9736 71.9697 72.2998 72.9072C71.6406 73.8301 71.1353 74.98 70.7837 76.3569C70.4321 77.7192 70.2563 79.2939 70.2563 81.0811V82.8828C70.2563 84.6699 70.4321 86.252 70.7837 87.6289C71.1353 89.0059 71.6479 90.1704 72.3218 91.1226C73.0103 92.0601 73.8306 92.7705 74.7827 93.2539C75.7349 93.7227 76.8188 93.957 78.0347 93.957C79.2651 93.957 80.3564 93.7227 81.3086 93.2539C82.2607 92.7705 83.0664 92.0601 83.7256 91.1226C84.3848 90.1704 84.8828 89.0059 85.2197 87.6289C85.5713 86.252 85.7471 84.6699 85.7471 82.8828ZM123.281 66.0078V98H117.766L103.417 75.0825V98H97.9023V66.0078H103.417L117.81 88.9692V66.0078H123.281ZM133.415 66.0078L140.841 81.2788L148.268 66.0078H154.376L143.61 86.2227V98H138.051V86.2227L127.284 66.0078H133.415Z" fill="black"/>
</svg>
